# xmcd
#
# Track frame offsets: 
#        150
#        15276
#        29452
#        43428
#        63380
#        81305
#        101433
#        124451
#        145299
#        162588
#        183853
#        205658
#        226507
#
# Disc length: 3274 seconds
#
# Revision: 0
# Processed by: cddbd v1.5.2PL0 Copyright (c) Steve Scherf et al.
# Submitted via: ExactAudioCopy v0.99pb4
#
DISCID=ac0cc80d
DTITLE=JJ thames - Raw Sugar
DYEAR=2016
DGENRE=RnB
TTITLE0=Oh Lord
TTITLE1=Hattie Pearl
TTITLE2=I'm leavin
TTITLE3=Leftovers
TTITLE4=Woman Scorned
TTITLE5=Only fools was me
TTITLE6=Bad man
TTITLE7=Hold me
TTITLE8=Don't stop my shine
TTITLE9=I don't feel nothing
TTITLE10=Plan B
TTITLE11=Raw sugar
TTITLE12=I wanna fall in love
EXTD=
EXTT0=
EXTT1=
EXTT2=
EXTT3=
EXTT4=
EXTT5=
EXTT6=
EXTT7=
EXTT8=
EXTT9=
EXTT10=
EXTT11=
EXTT12=
PLAYORDER=
